<svg id="efUzw9nPtTL1" xmlns="http://www.w3.org/2000/svg" xmlns:xlink="http://www.w3.org/1999/xlink" viewBox="0 0 185.65 211.06" shape-rendering="geometricPrecision" text-rendering="geometricPrecision" width="185.65" height="211.06"><style><![CDATA[#efUzw9nPtTL4_ts {animation: efUzw9nPtTL4_ts__ts 3000ms linear 1 normal forwards}@keyframes efUzw9nPtTL4_ts__ts { 0% {transform: translate(92.824997px,185.445px) scale(0,0)} 33.333333% {transform: translate(92.824997px,185.445px) scale(1,1)} 100% {transform: translate(92.824997px,185.445px) scale(1,1)}} #efUzw9nPtTL13_to {animation: efUzw9nPtTL13_to__to 3000ms linear 1 normal forwards}@keyframes efUzw9nPtTL13_to__to { 0% {transform: translate(93.215003px,-67.400002px)} 33.333333% {transform: translate(93.215002px,67.400002px)} 100% {transform: translate(93.215002px,67.400002px)}} #efUzw9nPtTL16_to {animation: efUzw9nPtTL16_to__to 3000ms linear 1 normal forwards}@keyframes efUzw9nPtTL16_to__to { 0% {transform: translate(65.410006px,-72.575088px)} 40% {transform: translate(65.410006px,41.524036px)} 100% {transform: translate(65.410006px,41.524036px)}} #efUzw9nPtTL17_to {animation: efUzw9nPtTL17_to__to 3000ms linear 1 normal forwards}@keyframes efUzw9nPtTL17_to__to { 0% {transform: translate(92.825px,-19.776042px)} 46.666667% {transform: translate(92.825px,-19.776042px)} 100% {transform: translate(92.825px,40.524037px)}} #efUzw9nPtTL17 {animation: efUzw9nPtTL17__tt 3000ms linear 1 normal forwards}@keyframes efUzw9nPtTL17__tt { 0% {transform: scale(1,-1) translate(0.000005px,0.000001px)} 53.333333% {transform: scale(1,-1) translate(0.000005px,0.000001px)} 100% {transform: scale(1,-1) translate(0px,-0.998224px)}} #efUzw9nPtTL18_to {animation: efUzw9nPtTL18_to__to 3000ms linear 1 normal forwards}@keyframes efUzw9nPtTL18_to__to { 0% {transform: translate(121.019997px,-72.575088px)} 60% {transform: translate(121.019997px,41.524036px)} 100% {transform: translate(121.019997px,41.524036px)}} #efUzw9nPtTL19_to {animation: efUzw9nPtTL19_to__to 3000ms linear 1 normal forwards}@keyframes efUzw9nPtTL19_to__to { 0% {transform: translate(93.209995px,-44.635089px)} 36.666667% {transform: translate(93.209995px,-44.635089px)} 60% {transform: translate(93.209995px,67.399999px)} 100% {transform: translate(93.209995px,67.399999px)}} #efUzw9nPtTL20_to {animation: efUzw9nPtTL20_to__to 3000ms linear 1 normal forwards}@keyframes efUzw9nPtTL20_to__to { 0% {transform: translate(93.209995px,-17.110013px)} 50% {transform: translate(92.825px,95.71px)} 100% {transform: translate(92.825px,95.71px)}} #efUzw9nPtTL20 {animation: efUzw9nPtTL20__tt 3000ms linear 1 normal forwards}@keyframes efUzw9nPtTL20__tt { 0% {transform: translate(0.000005px,0px)} 50% {transform: translate(0.000005px,0px)} 63.333333% {transform: translate(0.385px,0px)} 100% {transform: translate(0.385px,0px)}}]]></style><g><g><g id="efUzw9nPtTL4_ts" transform="translate(92.824997,185.445) scale(0,0)"><g transform="translate(-92.824997,-185.445)"><path d="M22.84,175.94v26.68h-3.14l-.85-2.69c-1.91,2.27-4.83,3.38-8.39,3.38C3.87,203.31,0,199.98,0,192.06v-5.56c0-7.98,3.88-11.25,10.46-11.25c3.56,0,6.48,1.11,8.39,3.38l.85-2.69h3.14Zm-4.51,16.64v-6.65c-.38-4.38-2.92-6.39-7.06-6.39-4.51,0-6.74,2.17-6.74,7.24v4.96c0,5.06,2.23,7.29,6.74,7.29c4.09,0,6.69-2.01,7.06-6.45v0Z" transform="translate(0-.17)" fill="#fff"/><path d="M53.37,186.51v5.54c0,7.98-3.88,11.25-10.46,11.25-3.56,0-6.48-1.11-8.33-3.33l-.85,2.64h-3.14v-40.67h4.51v16.1c1.85-1.9,4.57-2.8,7.8-2.8c6.59,0,10.47,3.3,10.47,11.26Zm-4.46.26c0-5.06-2.29-7.24-6.8-7.24-3.98,0-6.48,1.84-7.01,5.92v7.66c.53,4.07,3.08,5.92,7.01,5.92c4.51,0,6.8-2.17,6.8-7.29v-4.96Z" transform="translate(0-.17)" fill="#fff"/><path d="M81.94,175.94v26.68h-3.14l-.87-2.7c-1.91,2.27-4.83,3.38-8.39,3.38-6.59,0-10.46-3.33-10.46-11.25v-5.55c0-7.98,3.88-11.25,10.46-11.25c3.56,0,6.48,1.11,8.39,3.38l.85-2.69h3.16Zm-4.51,16.64v-6.65c-.37-4.38-2.92-6.39-7.06-6.39-4.51,0-6.74,2.17-6.74,7.24v4.96c0,5.06,2.23,7.29,6.74,7.29c4.09,0,6.69-2.01,7.06-6.45v0Z" transform="translate(0-.17)" fill="#fff"/><path d="M88.68,192.21v-5.92c0-6.86,3.93-11.04,11.26-11.04c6.9,0,11.05,4.02,11.05,10.46v.52h-4.51v-.63c0-4.02-2.34-6.08-6.53-6.08-4.63,0-6.74,2.33-6.74,7.02v5.39c0,4.7,2.07,7.02,6.74,7.02c4.16,0,6.53-2.06,6.53-6.07v-.64h4.51v.54c0,6.44-4.09,10.46-11.05,10.46-7.27-.01-11.26-4.19-11.26-11.05Z" fill="#fff"/><path d="M120.44,159.83v51.23h-2.23v-51.23h2.23Z" fill="#fff"/><path d="M151.88,176.1l-5.15,26.51h-1.71l.46-4.07c-2.03,2.92-5.36,4.66-8.92,4.65-5.63,0-9.83-4.17-8.39-11.68l3.02-15.42h2.26l-2.97,15.32c-1.17,6.28,2.12,9.66,6.53,9.66c3.88,0,7.76-2.64,9.35-7.82l3.28-17.16h2.24Z" fill="#fff"/><path d="M155.12,193.95h2.18c-1.06,4.65,2.44,7.18,7.96,7.18c4.67,0,7.7-2.43,7.7-5.86c0-7.82-15.19-3.44-15.19-12.04c0-4.75,4.25-7.71,10.09-7.71c6.64,0,10.64,3.33,9.4,9.14h-2.23c1.12-4.91-2.23-7.13-7.27-7.13-4.57,0-7.76,2.06-7.76,5.44c0,6.97,15.19,2.69,15.19,12.04c0,4.7-3.93,8.13-10.18,8.13-6.76,0-11.22-3.38-9.9-9.19Z" fill="#fff"/><path d="M185.65,159.83v51.23h-2.25v-51.23h2.25Z" fill="#fff"/></g></g><g id="efUzw9nPtTL13_to" transform="translate(93.215003,-67.400002)"><g transform="translate(-93.215002,-67.400001)"><line x1="4.58" y1="0" x2="4.58" y2="134.8" fill="none" stroke="#fff" stroke-width="5" stroke-miterlimit="10"/><path d="M181.85,0v134.8" fill="none" stroke="#fff" stroke-width="5"/></g></g></g></g><g id="efUzw9nPtTL16_to" transform="translate(65.410006,-72.575088)"><ellipse rx="9.87" ry="9.82" transform="translate(-0.000006,0.000001)" fill="#fff"/></g><g id="efUzw9nPtTL17_to" transform="translate(92.825,-19.776042)"><ellipse id="efUzw9nPtTL17" rx="9.87" ry="9.82" transform="scale(1,-1) translate(0.000005,0.000001)" fill="#fff"/></g><g id="efUzw9nPtTL18_to" transform="translate(121.019997,-72.575088)"><ellipse rx="9.87" ry="9.82" transform="translate(0.000003,0.000001)" fill="#fff"/></g><g id="efUzw9nPtTL19_to" transform="translate(93.209995,-44.635089)"><ellipse rx="9.87" ry="9.82" transform="translate(0.000005,0.000002)" fill="#fff"/></g><g id="efUzw9nPtTL20_to" transform="translate(93.209995,-17.110013)"><ellipse id="efUzw9nPtTL20" rx="9.87" ry="9.82" transform="translate(0.000005,0)" fill="#fff"/></g></svg>