<?xml version="1.0" encoding="UTF-8"?><svg id="Calque_2" xmlns="http://www.w3.org/2000/svg" viewBox="0 0 196.8 45"><defs><style>.cls-1{fill:none;stroke:#d91c32;stroke-miterlimit:10;stroke-width:3px;}.cls-2{fill:#d91c32;}</style></defs><g id="Calque_1-2"><path id="Tracé_3239" class="cls-2" d="M13.62,16.16v16h-1.87l-.53-1.62c-1.28,1.4-3.12,2.14-5.01,2.03-3.91,0-6.22-1.99-6.22-6.74v-3.33c0-4.78,2.31-6.75,6.24-6.75,1.89-.12,3.73,.63,5.01,2.03l.53-1.62h1.85Zm-2.69,9.98v-3.99c-.22-2.64-1.74-3.83-4.22-3.83-2.69,0-4.02,1.3-4.02,4.34v2.98c0,3.04,1.33,4.37,4.02,4.37,2.45,0,4-1.2,4.22-3.86Z"/><path id="Tracé_3240" class="cls-2" d="M31.84,22.49v3.33c0,4.78-2.31,6.74-6.24,6.74-1.87,.12-3.7-.61-4.97-1.99l-.53,1.59h-1.85V7.76h2.69v9.66c1.26-1.17,2.94-1.78,4.66-1.68,3.93,0,6.24,1.96,6.24,6.75Zm-2.64,.16c0-3.04-1.36-4.34-4.06-4.34-2.38,0-3.87,1.11-4.18,3.55v4.59c.32,2.44,1.84,3.54,4.18,3.54,2.69,0,4.06-1.29,4.06-4.37v-2.98Z"/><path id="Tracé_3241" class="cls-2" d="M48.89,16.16v16h-1.89l-.53-1.62c-1.28,1.4-3.12,2.15-5.01,2.03-3.93,0-6.24-1.99-6.24-6.74v-3.33c0-4.78,2.31-6.75,6.24-6.75,1.89-.12,3.73,.63,5.01,2.03l.53-1.62h1.89Zm-2.69,9.98v-3.99c-.22-2.64-1.74-3.83-4.22-3.83-2.69,0-4.02,1.3-4.02,4.34v2.98c0,3.04,1.33,4.37,4.02,4.37,2.45,0,4-1.2,4.22-3.86Z"/><path id="Tracé_3242" class="cls-2" d="M52.91,25.92v-3.55c0-4.12,2.35-6.62,6.72-6.62,4.12,0,6.59,2.41,6.59,6.27v.32h-2.69v-.38c0-2.41-1.39-3.64-3.9-3.64-2.76,0-4.02,1.39-4.02,4.22v3.23c0,2.82,1.24,4.22,4.02,4.22,2.47,0,3.9-1.24,3.9-3.64v-.38h2.69v.31c0,3.87-2.44,6.27-6.59,6.27-4.34-.01-6.72-2.52-6.72-6.63Z"/><path id="Tracé_3243" class="cls-2" d="M71.86,6.5v30.73h-1.33V6.5h1.33Z"/><path id="Tracé_3244" class="cls-2" d="M90.61,16.25l-3.07,15.9h-1.01l.29-2.44c-1.21,1.75-3.2,2.8-5.32,2.79-3.36,0-5.86-2.51-5.01-7l1.81-9.25h1.33l-1.77,9.19c-.7,3.76,1.27,5.81,3.9,5.81,2.31,0,4.63-1.58,5.58-4.69l1.96-10.28,1.33-.02Z"/><path id="Tracé_3245" class="cls-2" d="M92.54,26.96h1.3c-.63,2.79,1.46,4.31,4.75,4.31,2.79,0,4.59-1.46,4.59-3.52,0-4.69-9.06-2.06-9.06-7.22,0-2.85,2.54-4.63,6.02-4.63,3.96,0,6.34,2,5.61,5.48h-1.33c.66-2.95-1.33-4.28-4.34-4.28-2.73,0-4.63,1.24-4.63,3.26,0,4.18,9.06,1.62,9.06,7.22,0,2.82-2.35,4.87-6.08,4.87-4.03,0-6.68-2.03-5.89-5.51Z"/><path id="Tracé_3246" class="cls-2" d="M110.76,6.5v30.73h-1.33V6.5h1.33Z"/><line id="Ligne_74" class="cls-1" x1="136.45" x2="136.45" y2="45"/><line id="Ligne_75" class="cls-1" x1="195.3" x2="195.3" y2="45"/><g id="Groupe_84" transform="translate(2.811 2.833)"><circle id="Ellipse_19" class="cls-2" cx="156.46" cy="13.71" r="3.34"/><circle id="Ellipse_20" class="cls-2" cx="165.88" cy="13.71" r="3.34"/><circle id="Ellipse_21" class="cls-2" cx="165.88" cy="23.22" r="3.34"/><circle id="Ellipse_22" class="cls-2" cx="165.88" cy="32.73" r="3.34"/><circle id="Ellipse_23" class="cls-2" cx="175.29" cy="13.71" r="3.34"/></g></g></svg>