<?xml version="1.0" encoding="UTF-8"?><svg id="Calque_2" xmlns="http://www.w3.org/2000/svg" xmlns:xlink="http://www.w3.org/1999/xlink" viewBox="0 0 95.89 61.06"><defs><style>.cls-1{fill:none;}.cls-2{clip-path:url(#clippath);}.cls-3{fill:#fff;}.cls-4{clip-path:url(#clippath-1);}.cls-5{clip-path:url(#clippath-4);}.cls-6{clip-path:url(#clippath-3);}.cls-7{clip-path:url(#clippath-2);}.cls-8{clip-path:url(#clippath-6);}.cls-9{clip-path:url(#clippath-5);}</style><clipPath id="clippath"><rect class="cls-1" width="95.89" height="61.06"/></clipPath><clipPath id="clippath-1"><rect class="cls-1" width="95.89" height="61.06"/></clipPath><clipPath id="clippath-2"><rect class="cls-1" width="95.89" height="61.06"/></clipPath><clipPath id="clippath-3"><rect class="cls-1" width="95.89" height="61.06"/></clipPath><clipPath id="clippath-4"><rect class="cls-1" width="95.89" height="61.06"/></clipPath><clipPath id="clippath-5"><rect class="cls-1" width="95.89" height="61.06"/></clipPath><clipPath id="clippath-6"><rect class="cls-1" width="95.89" height="61.06"/></clipPath></defs><g id="Calque_1-2"><g id="logoTR" transform="translate(0 0)"><path id="Tracé_3275" class="cls-3" d="M0,0V15.92H15.92v31.85h5.31V10.61H5.31V5.31H47.77V0H0Z"/><path id="Tracé_3276" class="cls-3" d="M26.54,47.77h5.31V15.92h15.92v-5.31H26.54V47.77Z"/><g id="Groupe_126" transform="translate(0 0)"><g class="cls-2"><g id="Groupe_125"><path id="Tracé_3277" class="cls-3" d="M46.09,25.69c.52,.57,.79,1.32,.74,2.09v.4h-1.79v-.55c0-.69-.4-1.04-1.19-1.04s-1.19,.35-1.19,1.04v4.46c0,.69,.4,1.04,1.19,1.04s1.19-.35,1.19-1.04v-.55h1.79v.4c.05,.77-.22,1.53-.74,2.09-1.33,.98-3.14,.98-4.46,0-.52-.57-.79-1.32-.74-2.09v-4.16c-.05-.77,.22-1.52,.74-2.09,1.33-.98,3.14-.98,4.46,0"/><path id="Tracé_3278" class="cls-3" d="M59.73,27.64c0-.69-.4-1.04-1.19-1.04s-1.19,.35-1.19,1.04v4.46c0,.69,.4,1.04,1.19,1.04s1.19-.35,1.19-1.04v-.74h-1.19v-1.64h2.98v2.23c.05,.77-.22,1.53-.74,2.09-1.33,.98-3.14,.98-4.46,0-.52-.57-.79-1.32-.74-2.09v-4.17c-.05-.77,.22-1.52,.74-2.09,1.33-.98,3.14-.98,4.46,0,.52,.56,.79,1.32,.74,2.09v.25h-1.79v-.4Z"/></g></g></g><path id="Tracé_3279" class="cls-3" d="M65.12,29.05h2.83v1.64h-2.83v2.31h3.57v1.64h-5.36v-9.52h5.36v1.63h-3.57v2.31Z"/><g id="Groupe_128" transform="translate(0 0)"><g class="cls-4"><g id="Groupe_127"><path id="Tracé_3280" class="cls-3" d="M72.36,29.12h.91c.79,0,1.19-.35,1.19-1.04v-.3c0-.69-.4-1.04-1.19-1.04h-.91v2.38Zm.91-4.02c.81-.06,1.62,.2,2.23,.74,.99,1.22,.99,2.96,0,4.18-.62,.53-1.42,.8-2.23,.74h-.91v3.87h-1.79v-9.52h2.7Z"/><path id="Tracé_3281" class="cls-3" d="M54.07,25.11v1.63h-3.57v2.31h2.83v1.64h-2.83v2.31h3.57v1.64h-5.36v-6.89c-.04-1.39,1.04-2.56,2.43-2.63h2.92Z"/><path id="Tracé_3282" class="cls-3" d="M48.72,25.72c.53-.76,1.36-1.25,2.28-1.34h1.21c1.28,0,1.82-.63,1.97-1.94-.55,.46-1.26,.7-1.97,.66h-1.3c-1.3,.18-2.24,1.32-2.18,2.63"/><path id="Tracé_3283" class="cls-3" d="M75.47,38.87c.54,.58,.82,1.35,.77,2.13h-1.79c0-.84-.41-1.26-1.22-1.26s-1.16,.32-1.16,.97c0,.33,.16,.65,.43,.85,.32,.26,.67,.47,1.04,.63,.41,.18,.81,.38,1.22,.6,.41,.22,.77,.54,1.04,.93,.29,.43,.45,.93,.43,1.45,.05,.76-.24,1.5-.77,2.03-.61,.52-1.4,.77-2.2,.72-.81,.05-1.6-.22-2.2-.77-.54-.58-.82-1.35-.77-2.13h1.78c0,.84,.41,1.26,1.22,1.26,.77,0,1.16-.32,1.16-.97,0-.33-.16-.65-.43-.85-.32-.26-.67-.47-1.04-.63-.41-.18-.81-.38-1.22-.6-.41-.22-.77-.54-1.04-.93-.29-.43-.45-.93-.43-1.45-.05-.76,.24-1.5,.77-2.03,.61-.52,1.4-.77,2.2-.72,.81-.05,1.6,.23,2.2,.77"/><path id="Tracé_3284" class="cls-3" d="M57.72,40.78v4.46c0,.69,.4,1.04,1.19,1.04s1.19-.35,1.19-1.04v-4.46c0-.69-.4-1.04-1.19-1.04-.79,0-1.19,.35-1.19,1.04m3.42-1.94c.52,.57,.79,1.32,.74,2.09v4.17c.05,.77-.22,1.52-.74,2.09-1.33,.98-3.14,.98-4.46,0-.52-.57-.79-1.32-.74-2.09v-4.16c-.05-.77,.22-1.52,.74-2.09,1.33-.98,3.14-.98,4.46,0"/></g></g></g><path id="Tracé_3285" class="cls-3" d="M67.07,46.13h1.64v1.64h-5.06v-1.64h1.64v-6.25h-1.64v-1.64h5.06v1.64h-1.64v6.25Z"/><g id="Groupe_130" transform="translate(0 0)"><g class="cls-7"><g id="Groupe_129"><path id="Tracé_3286" class="cls-3" d="M50.18,39.88h1.2c.79,0,1.19,.35,1.19,1.04v.3c0,.69-.4,1.04-1.19,1.04h-1.2v-2.38Zm2.8,3.7c.23-.1,.44-.24,.62-.41,.99-1.22,.99-2.96,0-4.18-.62-.53-1.42-.8-2.23-.74h-2.98v9.52h1.79v-3.87h1.06l1.47,3.87h1.64v-.38c0-.24-.04-.47-.13-.69l-1.24-3.11Z"/></g></g></g><path id="Tracé_3287" class="cls-3" d="M44.75,39.88v7.88h-1.78v-7.88h-2.08v-1.64h5.95v1.64h-2.08Z"/><rect id="Rectangle_104" class="cls-3" x="77.94" y="42.26" width="3.95" height="1.64"/><g id="Groupe_132" transform="translate(0 0)"><g class="cls-6"><g id="Groupe_131"><path id="Tracé_3288" class="cls-3" d="M95.12,52.01c.54,.58,.82,1.35,.77,2.14h-1.78c0-.84-.41-1.26-1.22-1.26s-1.16,.32-1.16,.97c0,.33,.16,.65,.43,.85,.32,.26,.67,.47,1.04,.63,.41,.18,.81,.38,1.22,.6,.41,.22,.77,.54,1.04,.93,.29,.43,.45,.93,.43,1.45,.05,.76-.24,1.5-.77,2.03-.61,.52-1.4,.77-2.2,.72-.81,.05-1.6-.22-2.2-.77-.54-.58-.82-1.35-.77-2.14h1.78c0,.84,.41,1.26,1.22,1.26,.77,0,1.16-.32,1.16-.97,0-.33-.16-.65-.43-.85-.32-.26-.67-.47-1.04-.63-.41-.18-.81-.38-1.22-.6-.41-.23-.77-.54-1.04-.93-.29-.43-.45-.93-.43-1.45-.05-.76,.24-1.5,.77-2.03,.61-.52,1.4-.77,2.2-.72,.81-.05,1.6,.23,2.2,.77"/><path id="Tracé_3289" class="cls-3" d="M42.66,53.03h1.2c.79,0,1.19,.35,1.19,1.04v.3c0,.69-.4,1.04-1.19,1.04h-1.2v-2.38Zm2.8,3.7c.23-.1,.44-.24,.62-.41,.99-1.22,.99-2.96,0-4.18-.62-.53-1.42-.8-2.23-.74h-2.98v9.52h1.78v-3.87h1.06l1.47,3.87h1.64v-.39c0-.24-.04-.47-.13-.69l-1.24-3.11Z"/></g></g></g><path id="Tracé_3290" class="cls-3" d="M48.39,51.39v1.64h1.64v6.25h-1.64v1.64h5.06v-1.64h-1.63v-6.25h1.64v-1.64h-5.06Z"/><g id="Groupe_134" transform="translate(0 0)"><g class="cls-5"><g id="Groupe_133"><path id="Tracé_3291" class="cls-3" d="M58.81,53.06c.04-.18,.06-.36,.06-.55v-1.12h1.78v.78c0,.37-.04,.75-.12,1.11l-1.74,7.63h-2.38l-1.74-7.63c-.08-.36-.12-.74-.12-1.11v-.78h1.79v1.12c0,.18,.02,.37,.06,.55l1.21,5.89,1.21-5.89Z"/></g></g></g><path id="Tracé_3292" class="cls-3" d="M61.75,51.39v1.64h1.64v6.25h-1.64v1.64h5.06v-1.64h-1.64v-6.25h1.64v-1.64h-5.06Z"/><g id="Groupe_136" transform="translate(0 0)"><g class="cls-9"><g id="Groupe_135"><path id="Tracé_3293" class="cls-3" d="M77.77,53.03h1.2c.79,0,1.19,.35,1.19,1.04v.3c0,.69-.4,1.04-1.19,1.04h-1.2v-2.38Zm2.8,3.7c.23-.1,.44-.24,.62-.41,.99-1.22,.99-2.96,0-4.18-.62-.53-1.42-.8-2.23-.74h-2.98v9.52h1.79v-3.87h1.06l1.47,3.87h1.64v-.39c0-.24-.04-.47-.13-.69l-1.24-3.11Z"/></g></g></g><path id="Tracé_3294" class="cls-3" d="M83.55,51.39v9.52h5.36v-1.64h-3.57v-2.31h2.83v-1.64h-2.83v-2.31h3.57v-1.64h-5.36Z"/><path id="Tracé_3295" class="cls-3" d="M68.83,51.39v9.52h5.36v-1.64h-3.57v-2.3h2.83v-1.64h-2.83v-2.31h3.57v-1.64h-5.36Z"/><g id="Groupe_138" transform="translate(0 0)"><g class="cls-8"><g id="Groupe_137"><path id="Tracé_3296" class="cls-3" d="M74.18,50.66c-.33-.73-1.03-1.22-1.84-1.28h-1.31c-.72,.04-1.42-.19-1.97-.66,.15,1.3,.68,1.94,1.97,1.94h3.15Z"/></g></g></g></g></g></svg>